<svg width="265" height="220" viewBox="0 0 265 220" fill="none" xmlns="http://www.w3.org/2000/svg">
<path d="M265 158.25C265 196 238.71 219.97 190.52 219.97H179.89C181.45 218.84 182.97 217.68 184.42 216.45C200.98 202.36 209.74 182.24 209.74 158.25C209.74 140.18 204.2 124.75 193.27 112.4C191.1 109.94 188.71 107.63 186.13 105.47C186.36 105.23 186.58 105 186.8 104.77C197.78 93.1498 203.34 78.1198 203.34 60.0898C203.34 48.7698 201.23 38.1498 197.07 28.5298C192.88 18.8398 186.71 10.3798 178.74 3.37979C177.4 2.19979 176 1.08977 174.57 0.00976562H190.19C231.65 0.00976562 258.61 23.6498 258.61 60.0898C258.61 73.8798 254.56 84.7098 246.81 92.9198C239.06 101.13 231.73 105.62 222.63 106.6C222.63 106.6 223.87 106.6 224.64 106.83C246.17 113.17 265.01 128.68 265.01 158.26L265 158.25ZM149.39 106.6C158.49 105.62 165.82 101.13 173.57 92.9198C181.32 84.7098 185.37 73.8798 185.37 60.0898C185.37 23.6498 158.41 0.00976562 116.95 0.00976562H84.09V106.6H149.39ZM0 0.00976562V106.6L84.09 0.00976562H0ZM0 106.6V219.98H59.69V106.6H0ZM151.4 106.83C150.63 106.6 149.39 106.6 149.39 106.6L59.69 219.98H117.29C165.49 219.98 191.77 196.01 191.77 158.26C191.77 128.68 172.93 113.17 151.4 106.83Z" fill="url(#paint0_linear_2902_487778)"/>
<path d="M149.39 106.6C158.49 105.62 165.82 101.13 173.57 92.9198C181.32 84.7098 185.37 73.8798 185.37 60.0898C185.37 23.6498 158.41 0.00976562 116.95 0.00976562H84.09V106.6H149.39Z" fill="url(#paint1_linear_2902_487778)"/>
<path d="M224.629 106.82C223.859 106.59 222.619 106.59 222.619 106.59C231.719 105.61 239.049 101.12 246.799 92.91C254.549 84.7 258.599 73.87 258.599 60.08C258.599 23.64 231.639 0 190.179 0H176.779C218.239 0 245.199 23.64 245.199 60.08C245.199 73.87 241.149 84.7 233.399 92.91C225.649 101.12 218.319 105.61 209.219 106.59C209.219 106.59 210.459 106.59 211.229 106.82C232.759 113.16 251.599 128.67 251.599 158.25C251.599 195.26 226.329 219 179.939 219.93C179.919 219.94 179.899 219.96 179.879 219.97H190.509C238.709 219.97 264.989 196 264.989 158.25C264.989 128.67 246.149 113.16 224.619 106.82H224.629Z" fill="url(#paint2_linear_2902_487778)"/>
<path d="M151.34 106.82C150.57 106.59 149.33 106.59 149.33 106.59C158.43 105.61 165.76 101.12 173.51 92.91C181.26 84.7 185.31 73.87 185.31 60.08C185.31 23.64 158.35 0 116.89 0H103.49C144.95 0 171.91 23.64 171.91 60.08C171.91 73.87 167.86 84.7 160.11 92.91C152.36 101.12 145.03 105.61 135.93 106.59H149.33L146.7 110C146.7 110 146.84 110.06 146.91 110.09C164.45 117.85 178.32 132.87 178.32 158.25C178.32 195.26 153.05 219 106.66 219.93C106.64 219.94 106.62 219.96 106.6 219.97H117.23C165.43 219.97 191.71 196 191.71 158.25C191.71 128.67 172.87 113.16 151.34 106.82Z" fill="url(#paint3_linear_2902_487778)"/>
<path d="M0 106.6L84.09 0H76.17L0 95.51V106.6Z" fill="url(#paint4_linear_2902_487778)"/>
<path d="M59.6793 106.6H52.7793V219.97H59.6793V106.6Z" fill="url(#paint5_linear_2902_487778)"/>
<defs>
<linearGradient id="paint0_linear_2902_487778" x1="0.939998" y1="-0.95004" x2="227.29" y2="225.39" gradientUnits="userSpaceOnUse">
<stop stop-color="#FF6969"/>
<stop offset="0.37" stop-color="#6C00FA"/>
<stop offset="0.82" stop-color="#0049FF"/>
<stop offset="1" stop-color="#47DEEA"/>
</linearGradient>
<linearGradient id="paint1_linear_2902_487778" x1="-26.2969" y1="20.7205" x2="158.122" y2="254.564" gradientUnits="userSpaceOnUse">
<stop stop-color="#FF6969"/>
<stop offset="0.37" stop-color="#6C00FA"/>
<stop offset="0.82" stop-color="#0049FF"/>
<stop offset="1" stop-color="#47DEEA"/>
</linearGradient>
<linearGradient id="paint2_linear_2902_487778" x1="-127.623" y1="42.4919" x2="-45.3369" y2="289.694" gradientUnits="userSpaceOnUse">
<stop stop-color="#FF6969"/>
<stop offset="0.37" stop-color="#6C00FA"/>
<stop offset="0.82" stop-color="#0049FF"/>
<stop offset="1" stop-color="#47DEEA"/>
</linearGradient>
<linearGradient id="paint3_linear_2902_487778" x1="-127.609" y1="42.4919" x2="-45.315" y2="289.688" gradientUnits="userSpaceOnUse">
<stop stop-color="#FF6969"/>
<stop offset="0.37" stop-color="#6C00FA"/>
<stop offset="0.82" stop-color="#0049FF"/>
<stop offset="1" stop-color="#47DEEA"/>
</linearGradient>
<linearGradient id="paint4_linear_2902_487778" x1="265.01" y1="109.99" x2="-1.98545" y2="109.99" gradientUnits="userSpaceOnUse">
<stop stop-color="#FF6969"/>
<stop offset="0.37" stop-color="#6C00FA"/>
<stop offset="1" stop-color="#29A6DD"/>
</linearGradient>
<linearGradient id="paint5_linear_2902_487778" x1="26.1692" y1="133.22" x2="86.2992" y2="193.35" gradientUnits="userSpaceOnUse">
<stop stop-color="#6C00FA"/>
<stop offset="0.46" stop-color="#0049FF"/>
<stop offset="1" stop-color="#47DEEA"/>
</linearGradient>
</defs>
</svg>
