<?xml version="1.0" encoding="utf-8"?>
<!-- Generator: Adobe Illustrator 23.0.3, SVG Export Plug-In . SVG Version: 6.00 Build 0)  -->
<svg version="1.1" xmlns="http://www.w3.org/2000/svg" xmlns:xlink="http://www.w3.org/1999/xlink" x="0px" y="0px"
	 viewBox="0 0 557 105.6" style="enable-background:new 0 0 557 105.6;" xml:space="preserve">
<style type="text/css">
	.st0{fill:#4D4D4F;}
	.st1{fill:#6B66AE;}
	.st2{fill:#1D293C;}
	.st3{fill:#FFFFFF;}
</style>
<g id="Layer_2">
</g>
<g id="Layer_1">
	<g>
		<g>
			<path class="st2" d="M31.9,21.1c3.4-2.1,7-3.1,10.7-3.1v24.8H36c-4.4,0-7.6,0.8-9.7,2.3c-2.1,1.5-3.1,4.3-3.1,8.2v24.1H0v-59
				h23.2v10.9C25.6,25.9,28.5,23.1,31.9,21.1z"/>
			<path class="st2" d="M105.6,52H68.3c0.3,5.1,2.5,7.6,6.4,7.6c2.5,0,4.3-1.2,5.4-3.5h24.6c-0.8,4.2-2.6,7.9-5.3,11.2
				c-2.7,3.3-6.1,5.9-10.1,7.8c-4.1,1.9-8.6,2.9-13.4,2.9c-5.9,0-11.1-1.2-15.6-3.7C55.6,72,52,68.5,49.5,63.9
				c-2.5-4.6-3.8-9.9-3.8-16c0-6.1,1.3-11.5,3.8-16c2.5-4.6,6.1-8.1,10.7-10.5c4.6-2.4,9.8-3.7,15.6-3.7c5.9,0,11.1,1.2,15.6,3.6
				c4.6,2.4,8.1,5.8,10.7,10.3c2.5,4.5,3.8,9.7,3.8,15.8C105.9,49,105.8,50.5,105.6,52z M82.4,41.8c0-2-0.6-3.4-1.9-4.4
				c-1.3-1-2.8-1.5-4.7-1.5c-4.1,0-6.5,2-7.2,6H82.4z"/>
			<path class="st2" d="M136.4,0v77.4h-23.2V0H136.4z"/>
			<path class="st2" d="M146.9,31.7c2.1-4.6,5-8,8.7-10.5c3.7-2.4,7.8-3.6,12.4-3.6c3.8,0,7.1,0.8,9.9,2.4c2.8,1.6,4.9,3.7,6.4,6.4
				v-8h23.1v59h-23.1v-8c-1.5,2.7-3.6,4.9-6.4,6.4c-2.8,1.6-6.1,2.4-9.9,2.4c-4.6,0-8.7-1.2-12.4-3.6c-3.7-2.4-6.6-5.9-8.7-10.5
				c-2.1-4.6-3.2-9.9-3.2-16.2C143.7,41.7,144.8,36.3,146.9,31.7z M182,40.6c-1.6-1.7-3.7-2.6-6.2-2.6c-2.5,0-4.6,0.9-6.2,2.6
				c-1.6,1.7-2.4,4.2-2.4,7.3c0,3.1,0.8,5.6,2.4,7.3c1.6,1.7,3.7,2.6,6.2,2.6c2.5,0,4.6-0.9,6.2-2.6c1.6-1.7,2.4-4.2,2.4-7.3
				C184.4,44.7,183.6,42.3,182,40.6z"/>
			<path class="st2" d="M284.5,18.4l-37.7,87.2h-25.4l14.8-31.2l-24.6-56h25.8l11.1,29.9l10.3-29.9H284.5z"/>
			<path class="st2" d="M323.7,31.8c2.5-4.6,6.1-8.1,10.7-10.5c4.6-2.4,9.8-3.7,15.6-3.7c7.7,0,14.1,2.2,19.4,6.5
				c5.3,4.3,8.6,10.3,10,18h-24.6c-0.9-3.1-2.7-4.6-5.3-4.6c-1.9,0-3.4,0.9-4.4,2.6c-1.1,1.7-1.6,4.3-1.6,7.7c0,3.4,0.5,6,1.6,7.7
				c1.1,1.7,2.6,2.6,4.4,2.6c2.6,0,4.4-1.5,5.3-4.6h24.6c-1.4,7.7-4.7,13.7-10,18c-5.3,4.3-11.7,6.5-19.4,6.5
				c-5.9,0-11.1-1.2-15.6-3.7c-4.6-2.4-8.1-5.9-10.7-10.5c-2.5-4.6-3.8-9.9-3.8-16C319.9,41.7,321.2,36.4,323.7,31.8z"/>
			<path class="st2" d="M409.9,0v77.4h-23.2V0H409.9z"/>
			<path class="st2" d="M482.8,18.4v59h-23.2v-9c-1.8,2.8-4.2,5.1-7.3,6.8c-3,1.7-6.6,2.6-10.8,2.6c-6.8,0-12-2.3-15.8-6.8
				c-3.8-4.5-5.7-10.7-5.7-18.4V18.4h23.1v31.3c0,2.8,0.7,5,2.2,6.6c1.5,1.6,3.5,2.5,6,2.5c2.6,0,4.6-0.8,6.1-2.5
				c1.5-1.6,2.2-3.9,2.2-6.6V18.4H482.8z"/>
			<path class="st2" d="M522.8,20c2.8-1.6,6-2.4,9.9-2.4c4.6,0,8.7,1.2,12.4,3.6c3.7,2.4,6.6,5.9,8.7,10.5c2.1,4.6,3.2,9.9,3.2,16.2
				c0,6.2-1.1,11.6-3.2,16.2c-2.1,4.6-5,8-8.7,10.5c-3.7,2.4-7.8,3.6-12.4,3.6c-3.8,0-7.1-0.8-9.9-2.4c-2.8-1.6-4.9-3.7-6.3-6.4v8
				h-23.2V0h23.2v26.4C517.9,23.7,520,21.6,522.8,20z M531.1,40.6c-1.6-1.7-3.7-2.6-6.2-2.6c-2.5,0-4.6,0.9-6.2,2.6
				c-1.6,1.7-2.4,4.2-2.4,7.3c0,3.1,0.8,5.6,2.4,7.3c1.6,1.7,3.7,2.6,6.2,2.6c2.5,0,4.6-0.9,6.2-2.6c1.6-1.7,2.4-4.2,2.4-7.3
				C533.5,44.7,532.7,42.3,531.1,40.6z"/>
		</g>
		<circle class="st1" cx="295.7" cy="66.6" r="10.7"/>
	</g>
</g>
</svg>
